<svg fill="none" height="24" viewBox="0 0 24 24" width="24" xmlns="http://www.w3.org/2000/svg"><path d="m12.6385 3.05526.2334-.97237zm1.2988.882-.7071.70711zm-.7207-.64254.5225-.85264zm-7.12458 17.48728.45399-.891zm-.87403-.874.891-.454zm12.69001.874-.454-.891zm.874-.874-.891-.454zm-.7193-11.84526.7071-.70711zm.6426.72069.8526-.5225zm.2394.57811.9724-.23345zm-13.72671-5.26952.891.45399zm.87403-.87403.45399.891zm7.87808 8.53951c-.1339-.5358-.6768-.8616-1.2126-.7276-.5358.1339-.8616.6768-.7276 1.2126zm.5299 6.2425-.9701.2425c.1112.4452.5112.7575.9701.7575s.8589-.3123.9701-.7575zm2.4701-5.7575c.134-.5358-.1918-1.0787-.7276-1.2126-.5358-.134-1.0787.1918-1.2126.7276zm-5.9701 6.7575c.5523 0 1-.4477 1-1s-.4477-1-1-1zm-1.76537-1.1522-.38268.9238zm-1.08239-1.0824-.92388.3827zm2.84776-3.7654c.5523 0 1-.4477 1-1s-.4477-1-1-1zm-1.76537-.8478-.38268-.9238zm-1.08239 1.0824-.92388-.3827zm5.84776-10.05479c0-.55229-.4477-1-1-1s-1 .44771-1 1zm4.82 6.82019c.5523 0 1-.44771 1-1 0-.55228-.4477-1-1-1zm-3.02 10h-7.6v2h7.6zm-9.8-2.2v-11.6h-2v11.6zm2.2-13.8h3.4745v-2h-3.4745zm9.8 6.3255v7.4745h2v-7.4745zm-6.3255-6.3255c.5368 0 .6422.00643.7305.02763l.4669-1.94474c-.372-.08932-.7558-.08289-1.1974-.08289zm2.9699-.76985c-.3123-.31224-.5791-.58816-.9053-.78807l-1.045 1.70528c.0774.04746.1565.11744.5361.49701zm-2.2394.79748c.1021.0245.1996.0649.2891.11973l1.045-1.70528c-.2684-.16449-.5611-.2857-.8672-.35919zm-4.205 15.97237c-.57655 0-.94883-.0008-1.23216-.0239-.27167-.0222-.37239-.0599-.42183-.0851l-.90798 1.782c.37838.1928.7716.2641 1.16694.2964.38367.0314.85148.0306 1.39503.0306zm-4.2-2.2c0 .5436-.00078 1.0114.03057 1.395.0323.3954.10362.7886.29641 1.167l1.78201-.908c-.02519-.0495-.06287-.1502-.08506-.4218-.02315-.2834-.02393-.6556-.02393-1.2322zm2.54601 2.091c-.18816-.0959-.34114-.2488-.43702-.437l-1.78201.908c.28762.5645.74656 1.0234 1.31105 1.311zm9.25399 2.109c.5436 0 1.0114.0008 1.395-.0306.3954-.0323.7886-.1036 1.167-.2964l-.908-1.782c-.0495.0252-.1502.0629-.4218.0851-.2834.0231-.6556.0239-1.2322.0239zm2.2-4.2c0 .5766-.0008.9488-.0239 1.2322-.0222.2716-.0599.3723-.0851.4218l1.782.908c.1928-.3784.2641-.7716.2964-1.167.0314-.3836.0306-.8514.0306-1.395zm.362 3.873c.5645-.2876 1.0234-.7465 1.311-1.311l-1.782-.908c-.0959.1882-.2488.3411-.437.437zm-1.0064-12.90315c.3796.37956.4496.45864.497.53608l1.7053-1.045c-.1999-.32622-.4758-.59305-.7881-.9053zm2.6444 1.55565c0-.4416.0064-.82538-.0829-1.19741l-1.9447.46689c.0212.08832.0276.19372.0276.73052zm-2.1474-1.01957c.0549.08947.0953.18702.1198.28905l1.9447-.46689c-.0735-.30611-.1947-.59874-.3592-.86716zm-11.8526-3.10593c0-.57655.00078-.94883.02393-1.23216.02219-.27167.05987-.37239.08506-.42183l-1.78201-.90798c-.19279.37838-.26411.7716-.29641 1.16694-.03135.38367-.03057.85148-.03057 1.39503zm2.2-4.2c-.54355 0-1.01136-.00078-1.39503.03057-.39534.0323-.78856.10362-1.16694.29641l.90798 1.78201c.04944-.02519.15016-.06287.42183-.08506.28333-.02315.65561-.02393 1.23216-.02393zm-2.09101 2.54601c.09588-.18816.24886-.34114.43702-.43702l-.90798-1.78201c-.56449.28762-1.02343.74656-1.31105 1.31105zm5.92091 7.69649 1.5 6 1.9402-.485-1.5-6zm3.4402 6 1.5-6-1.9402-.485-1.5 6zm-4.4701-1.2425c-.4796 0-.7893-.0005-1.02624-.0167-.228-.0156-.31483-.0422-.35644-.0594l-.76537 1.8477c.32593.135.65584.1845.98567.2071.32088.0218.71008.0213 1.16238.0213zm-4-2c0 .4523-.00054.8415.02135 1.1624.0225.3298.07201.6597.20701.9857l1.84776-.7654c-.01724-.0416-.04385-.1285-.05941-.3565-.01617-.2369-.01671-.5466-.01671-1.0262zm2.61732 1.9239c-.24503-.1015-.43971-.2962-.5412-.5412l-1.84776.7654c.30448.735.88851 1.3191 1.62359 1.6235zm1.38268-5.9239c-.4523 0-.8415-.0005-1.16238.0213-.32983.0226-.65974.0721-.98567.2071l.76537 1.8477c.04161-.0172.12844-.0438.35644-.0594.23694-.0162.54664-.0167 1.02624-.0167zm-2 4c0-.4796.00054-.7893.01671-1.0262.01556-.228.04217-.3149.05941-.3565l-1.84776-.7654c-.135.326-.18451.6559-.20701.9857-.02189.3209-.02135.7101-.02135 1.1624zm-.14805-3.7716c-.73509.3044-1.31911.8885-1.62359 1.6235l1.84776.7654c.10149-.245.29617-.4397.5412-.5412zm3.14805-8.04859v4.82019h2v-4.82019zm2 6.82019h4.82v-2h-4.82zm-2-2c0 1.10457.8954 2 2 2v-2zm1.2302-3.35563 4.1254 4.12548 1.4142-1.41422-4.1254-4.12548z" fill="#000"/></svg>